<svg width="7" height="11" viewBox="0 0 7 11" fill="none" xmlns="http://www.w3.org/2000/svg">
<path d="M0.242494 10.7826C0.0808314 10.6377 0 10.4661 0 10.2678C0 10.07 0.0808314 9.89855 0.242494 9.75362L4.97921 5.50725L0.226328 1.24638C0.0754426 1.11111 0 0.942029 0 0.73913C0 0.536232 0.0808314 0.362319 0.242494 0.217391C0.404157 0.0724638 0.595566 0 0.81672 0C1.03744 0 1.22864 0.0724638 1.3903 0.217391L6.82217 5.10145C6.88684 5.15942 6.93275 5.22222 6.95991 5.28985C6.98664 5.35749 7 5.42995 7 5.50725C7 5.58454 6.98664 5.657 6.95991 5.72464C6.93275 5.79227 6.88684 5.85507 6.82217 5.91304L1.37413 10.7971C1.22325 10.9324 1.03744 11 0.81672 11C0.595566 11 0.404157 10.9275 0.242494 10.7826Z" fill="black"/>
</svg>
